<svg xmlns="http://www.w3.org/2000/svg" width="256" height="256"><path fill="#1976D2" fill-opacity=".016" fill-rule="evenodd" d="M0 128.004v128.004l128.25-.254 128.25-.254.254-127.75L257.008 0H0v128.004m.485.496c0 70.4.119 99.053.265 63.672.146-35.38.146-92.98 0-128C.604 29.153.485 58.1.485 128.5"/><path fill="#1976D2" fill-opacity=".334" fill-rule="evenodd" d="M113.5.69C86.088 4.255 59.773 17.232 39.922 36.975 22.008 54.792 12.03 72.226 5.284 97.5c-2.456 9.202-2.673 11.597-2.726 30-.054 18.761.111 20.62 2.668 30 7.202 26.422 17.223 43.839 35.435 61.59 18.265 17.802 37.799 28.357 62.839 33.953 13.068 2.921 36.641 3.16 49.5.501 18.161-3.754 32.659-9.665 47.202-19.246 8.873-5.846 9.584-7.228 1.66-3.228-14.019 7.076-24.932 10.179-41.832 11.892-33.469 3.393-68.703-9.365-92.695-33.564-33.023-33.309-42.956-82.832-25.276-126.016 18.643-45.534 63.663-74.415 112.358-72.079 17.28.829 28.439 3.503 43.833 10.502 3.712 1.688 6.75 2.937 6.75 2.774 0-.769-11.572-7.844-18.653-11.404-9.879-4.967-28.357-10.767-38.669-12.136C140.264.054 119.98-.153 113.5.69m19.5 23.3c-8.802 1.165-20.853 4.896-29.726 9.203-31.068 15.082-50.577 40.692-58.698 77.057-.358 1.603-.189 2.75.405 2.75.56 0 1.019-.706 1.019-1.57 0-2.77 6.035-16.173 10.199-22.65 8.564-13.32 20.536-24.628 34.064-32.177 24.176-13.489 55.597-15.483 81.61-5.18 28.596 11.327 50.534 36.572 57.737 66.443 2.567 10.644 2.969 29.007.867 39.648-3.983 20.175-13.175 37.206-27.685 51.297-7.935 7.705-13.902 11.757-26.292 17.855-6.05 2.978-10.1 5.184-9 4.902 1.1-.282 4.758-1.212 8.128-2.067 31.827-8.073 59.668-33.333 71.345-64.73 4.392-11.81 6.013-21.678 6.02-36.647.005-11.195-.466-16.39-2.129-23.476-7.039-29.983-27.457-56.377-53.864-69.631-20.76-10.42-41.537-14-64-11.027m42.266 68.338L159.033 105.5l-.017 58.25c-.018 66.571-1.123 60.428 9.922 55.203 8.188-3.874 18.273-11.052 21.535-15.329l2.527-3.313v-60.655c0-33.361-.338-60.621-.75-60.578-.412.042-8.055 6.005-16.984 13.25m-43.516 28.42L115 132.403v42.676c0 35.207.243 42.878 1.39 43.829 1.906 1.583 13.319 3.799 23.86 4.635l8.75.694v-57.619c0-31.69-.113-57.597-.25-57.572-.137.026-7.787 5.292-17 11.702m-42.5 28.073L73 160.454v26.366l3.834 4.84c5.638 7.115 15.354 15.768 22.234 19.8 3.321 1.947 6.465 3.54 6.986 3.54.579 0 .946-15.139.946-39 0-21.45-.338-38.957-.75-38.905-.412.052-8.062 5.329-17 11.726"/><path fill="#1976D2" fill-opacity=".288" fill-rule="evenodd" d="M111.5 1.583C91.963 4.6 70.358 13.175 56.104 23.571 47.141 30.108 33.87 43.08 27.537 51.494c-24.912 33.1-32.052 78.11-18.57 117.063 5.713 16.508 13.414 29.811 25.018 43.217C74.714 258.829 145.19 268.881 198 235.168c7.26-4.634 7.526-5.208.938-2.022-31.061 15.021-71.554 14.121-103.102-2.292-31.155-16.209-53.329-45.781-61.002-81.354-1.691-7.84-1.699-36.105-.013-44 9.923-46.441 43.176-81.072 88.269-91.927 21.294-5.126 49.476-2.967 69.91 5.355 9.272 3.776 6.503 1.425-5.431-4.612C163.901 2.343 136.397-2.261 111.5 1.583m26.746 22.462c-21.532 2.148-41.201 10.524-57.621 24.535-15.33 13.082-25.04 27.606-31.653 47.345-3.66 10.923-3.86 14.924-.304 6.075C54.089 88.51 66.627 72.63 79.5 62.951c24.749-18.609 59.532-23.968 88.271-13.602 23.952 8.64 41.503 23.606 53.614 45.717 12.126 22.138 14.513 51.468 6.171 75.821-8.528 24.899-28.19 46.639-51.056 56.455-7.349 3.155-6.461 3.324 2.892.55 26.924-7.987 52.184-30.038 63.829-55.719 11.382-25.102 12.713-53.19 3.728-78.673-3.786-10.739-5.775-14.774-11.761-23.865-5.533-8.403-18.746-21.903-26.752-27.335-20.795-14.106-46.021-20.667-70.19-18.255m37.004 69.029L159 106.144v115.991l2.25-.664c8.39-2.475 21.565-10.463 27.508-16.676l3.258-3.406-.258-60.692-.258-60.693-16.25 13.07m-43.5 28.15L116 132.266v86.417l3.75 1.11c5.965 1.765 16.22 3.191 23 3.199L149 223v-56.5c0-31.075-.338-56.459-.75-56.409-.412.051-7.838 5.061-16.5 11.133m-30.856 20.085c-2.417 1.821-9.456 6.837-15.644 11.148L74 160.296V187.611l5.428 6.58c5.254 6.37 13.571 13.231 22.299 18.394l4.227 2.501.273-38.544c.15-21.198 0-38.543-.333-38.542-.334 0-2.584 1.489-5 3.309"/><path fill="#1976D2" fill-opacity=".403" fill-rule="evenodd" d="M112.5 1.684c-5.169.662-20.575 4.367-24.88 5.983-18.473 6.932-31.401 15.189-46.096 29.438C15.308 62.527 2.936 91.65 2.911 128c-.014 20.906 3.949 37.807 13.197 56.276 7.059 14.098 13.83 23.392 24.769 34 23.734 23.018 51.923 35.154 84.048 36.185 19.381.622 36.617-2.481 54.533-9.818 7.212-2.953 20.959-10.799 16.042-9.156-1.1.368-5.194 1.747-9.099 3.065-12.674 4.278-24.197 5.713-41.401 5.156-18.292-.591-29.525-3.134-44.257-10.019-13.673-6.389-23.095-13.029-33.848-23.854-10.749-10.821-17.207-19.98-23.488-33.313-16.453-34.927-13.73-79.128 6.85-111.205 27.175-42.357 75.1-62.567 124.301-52.42 4.981 1.027 11.844 2.994 15.25 4.369 3.405 1.376 6.192 2.333 6.192 2.128 0-.206-4.037-2.401-8.97-4.879C167.99 4.952 150.28.91 128.5 1.154c-7.15.08-14.35.319-16 .53m75.301 81.732c-2.035 1.864-6.535 5.551-10 8.195-3.466 2.643-8.889 7.062-12.051 9.82l-5.75 5.014v114.714l3.018-.663c5.242-1.151 15.739-7.644 22.525-13.931l6.546-6.065-.295-60.237-.294-60.236-3.699 3.389M103.3 140.25c-.44.688-1.527 1.7-2.415 2.25-4.83 2.991-13.453 8.858-13.885 9.449-.275.376-2.75 2.207-5.5 4.069-7.799 5.282-7.5 4.557-7.5 18.216v12.377l5.397 6.543c2.969 3.599 7.357 8.105 9.75 10.013C94.7 207.592 103.329 213 104.838 213c.862 0 1.162-9.553 1.162-37 0-34.974-.338-39.443-2.7-35.75"/></svg>